<svg id="aissearch" data-name="aissearch" xmlns="http://www.w3.org/2000/svg" width="24" height="24" viewBox="0 0 24 24"><title>vessel search</title><path d="M19.6,17.68L16.91,15a0.48,0.48,0,0,0-.34-0.15,0.49,0.49,0,0,0-.38.19A7.34,7.34,0,0,1,15,16.17a0.49,0.49,0,0,0-.19.36,0.48,0.48,0,0,0,.14.36l2.69,2.71a1.34,1.34,0,0,0,1,.4h0a1.35,1.35,0,0,0,.59-0.14,1.61,1.61,0,0,0,.63-0.63A1.37,1.37,0,0,0,19.6,17.68Z"/><path d="M10.52,17.11A6.56,6.56,0,1,0,4,10.56,6.55,6.55,0,0,0,10.52,17.11Zm1.35-2a0.94,0.94,0,0,1,.51-0.38h0a6.46,6.46,0,0,0,.82-0.81,5.51,5.51,0,0,0,.45-0.6l0.05-.08a2.28,2.28,0,0,0,.44-1,0.63,0.63,0,0,0-.67-0.51,0.91,0.91,0,0,1-.38-0.12L13,11.44l-0.14-.17a2.12,2.12,0,0,0-.71-0.42L12,10.76a2.23,2.23,0,0,0-.87-0.3,0.43,0.43,0,0,0-.38.18h0a1.44,1.44,0,0,0-.27-0.07,0.54,0.54,0,0,1-.33-0.14A0.37,0.37,0,0,1,10,10.15a0.43,0.43,0,0,1,0-.07,0.32,0.32,0,0,0,0-.26,0.23,0.23,0,0,0-.18-0.07H9.66a0.65,0.65,0,0,1-.17,0h0a0.77,0.77,0,0,1,.22-0.5,0.42,0.42,0,0,1,.4,0l0.07,0.06a0.34,0.34,0,0,0,.21.11,0.22,0.22,0,0,0,.18-0.11,0.62,0.62,0,0,0,.09-0.28,0.65,0.65,0,0,1,0-.13,0.87,0.87,0,0,1,.11-0.19l0.1-.14a1.61,1.61,0,0,1,.31-0.43,1.59,1.59,0,0,1,.58-0.27l0.11,0a1.22,1.22,0,0,0,.81-0.38,0.18,0.18,0,0,0,0-.17,0.27,0.27,0,0,0-.22-0.13,0.33,0.33,0,0,0,0-.11,0.52,0.52,0,0,0-.06-0.27,0.87,0.87,0,0,0,.58.33,0.35,0.35,0,0,0,.24-0.09l0.13-.13a0.3,0.3,0,0,1,.13-0.11,0.3,0.3,0,0,1,.16.1A4.81,4.81,0,0,1,12,15.14l-0.13,0h0ZM12.24,6.5a0.46,0.46,0,0,0,.05.16,2.51,2.51,0,0,0-.84-0.58A0.35,0.35,0,0,0,11.63,6l0.05,0h0a0.84,0.84,0,0,1,.22,0L12,6,12.26,6.1l0.08,0A0.53,0.53,0,0,0,12.24,6.5Zm-1.67-.45a0.47,0.47,0,0,0,0,.32v0a1,1,0,0,1-.08.55h0l0-.06,0,0a0.79,0.79,0,0,0-.55-0.32l-0.17,0a0.3,0.3,0,0,1-.23-0.24,0.33,0.33,0,0,1,.15-0.2,1.45,1.45,0,0,1,.81-0.33,0.52,0.52,0,0,1,.3.09l0,0L10.84,5.9A0.32,0.32,0,0,0,10.57,6.06Zm-4,2.69a0.72,0.72,0,0,0,.2.17A0.46,0.46,0,0,1,6.95,9a0.63,0.63,0,0,0,.27.2,0.42,0.42,0,0,1,.18.12L7.59,9.6,7.71,9.75,7.76,9.84a0.45,0.45,0,0,0,.2.23,1.53,1.53,0,0,0,.42.12,1.08,1.08,0,0,1,.41.14l0.32,0.2a6.43,6.43,0,0,0,1,.54,0.7,0.7,0,0,0,.25.05h0.06a0.12,0.12,0,0,1,.08,0,0.62,0.62,0,0,1-.08.32l-0.05.13a1.24,1.24,0,0,0,.25,1.1,2.39,2.39,0,0,0,.21.21,1.14,1.14,0,0,1,.28.33,1.15,1.15,0,0,1,0,.68c0,0.07,0,.16,0,0.28s0,0.33-.07.5c-0.1.59-.23,0.65-0.27,0.66l-0.23,0A4.81,4.81,0,0,1,6.37,8.15,1,1,0,0,0,6.61,8.74Z"/></svg>
