<?xml version="1.0" encoding="utf-8"?>
<!-- Generator: Adobe Illustrator 21.1.0, SVG Export Plug-In . SVG Version: 6.00 Build 0)  -->
<svg version="1.1" id="h-language" xmlns="http://www.w3.org/2000/svg" xmlns:xlink="http://www.w3.org/1999/xlink" x="0px" y="0px"
	 width="16px" height="16px" viewBox="0 0 16 16" style="enable-background:new 0 0 16 16;" xml:space="preserve">
<style type="text/css">
	.st0{fill:#5C7080;}
</style>
<g>
	<path class="st0" d="M8,1C4.1,1,1,4.1,1,8s3.1,7,7,7c3.9,0,7-3.1,7-7S11.9,1,8,1z M12.8,5.2h-2.1c-0.2-0.9-0.5-1.7-1-2.5
		C11.1,3.1,12.2,4,12.8,5.2z M8,2.4c0.6,0.8,1,1.8,1.3,2.8H6.7C7,4.2,7.4,3.3,8,2.4z M2.6,9.4C2.5,9,2.4,8.5,2.4,8s0.1-1,0.2-1.4
		h2.4C4.9,7.1,4.9,7.5,4.9,8c0,0.5,0,0.9,0.1,1.4H2.6z M3.2,10.8h2.1c0.2,0.9,0.5,1.7,1,2.5C4.9,12.9,3.8,12,3.2,10.8z M5.2,5.2H3.2
		c0.7-1.2,1.7-2.1,3-2.5C5.8,3.5,5.4,4.3,5.2,5.2z M8,13.6c-0.6-0.8-1-1.8-1.3-2.8h2.7C9,11.8,8.6,12.7,8,13.6z M9.6,9.4H6.4
		C6.3,8.9,6.3,8.5,6.3,8c0-0.5,0-0.9,0.1-1.4h3.3C9.7,7.1,9.8,7.5,9.8,8C9.8,8.5,9.7,8.9,9.6,9.4z M9.8,13.3c0.4-0.8,0.7-1.6,1-2.5
		h2.1C12.2,12,11.1,12.9,9.8,13.3z M11.1,9.4c0.1-0.5,0.1-0.9,0.1-1.4c0-0.5,0-0.9-0.1-1.4h2.4C13.5,7,13.6,7.5,13.6,8
		s-0.1,1-0.2,1.4H11.1z"/>
</g>
</svg>
