<svg id="Слой_1" data-name="Слой 1" xmlns="http://www.w3.org/2000/svg" width="24" height="24" viewBox="0 0 24 24"><defs><style>.cls-1{fill:#333;}</style></defs><title>info</title><path class="cls-1" d="M15.07,18.38v1.5A0.12,0.12,0,0,1,15,20H9.21a0.12,0.12,0,0,1-.12-0.11v-1.5a0.12,0.12,0,0,1,.12-0.11h1.66v-8H9.19a0.12,0.12,0,0,1-.12-0.11V8.63a0.11,0.11,0,0,1,.12-0.11h3.92a0.12,0.12,0,0,1,.12.11v9.64H15A0.12,0.12,0,0,1,15.07,18.38Z"/><ellipse class="cls-1" cx="11.65" cy="5.71" rx="1.8" ry="1.73"/></svg>