<?xml version="1.0" encoding="utf-8"?>
<!-- Generator: Adobe Illustrator 21.1.0, SVG Export Plug-In . SVG Version: 6.00 Build 0)  -->
<svg version="1.1" id="m-createRasterLayer" xmlns="http://www.w3.org/2000/svg" xmlns:xlink="http://www.w3.org/1999/xlink" x="0px" y="0px"
	 width="16px" height="16px" viewBox="0 0 16 16" style="enable-background:new 0 0 16 16;" xml:space="preserve">
<style type="text/css">
	.st0{fill:#5C7080;}
</style>
<rect x="2" y="2" class="st0" width="12" height="2"/>
<rect x="2" y="12" class="st0" width="12" height="2"/>
<rect x="-3" y="7" transform="matrix(-1.836970e-16 1 -1 -1.836970e-16 11 5)" class="st0" width="12" height="2"/>
<rect x="7" y="7" transform="matrix(-1.836970e-16 1 -1 -1.836970e-16 21 -5)" class="st0" width="12" height="2"/>
<g>
	<path class="st0" d="M7.8,8.8H7.1v1.9H5.8V5.3h2.1c0.6,0,1.1,0.1,1.5,0.4S10,6.4,10,6.9c0,0.4-0.1,0.7-0.2,0.9
		C9.6,8.1,9.4,8.3,9,8.5l1.1,2.2v0.1H8.8L7.8,8.8z M7.1,7.8h0.8c0.2,0,0.4-0.1,0.6-0.2c0.1-0.1,0.2-0.3,0.2-0.5
		c0-0.2-0.1-0.4-0.2-0.5S8.2,6.3,7.9,6.3H7.1V7.8z"/>
</g>
</svg>
