<?xml version="1.0" encoding="utf-8"?>
<!-- Generator: Adobe Illustrator 21.1.0, SVG Export Plug-In . SVG Version: 6.00 Build 0)  -->
<svg version="1.1" id="m-gmxprint" xmlns="http://www.w3.org/2000/svg" xmlns:xlink="http://www.w3.org/1999/xlink" x="0px" y="0px"
	 width="16px" height="16px" viewBox="0 0 16 16" style="enable-background:new 0 0 16 16;" xml:space="preserve">
<style type="text/css">
	.st0{fill:#5C7080;}
</style>
<g>
	<rect x="4.5" y="1" class="st0" width="7" height="2.6"/>
	<path class="st0" d="M11.5,5.4h-7C2.6,5.4,1,7,1,8.9v2.6c0,0.5,0.4,0.9,0.9,0.9h1.8v1.8C3.6,14.7,4,15,4.5,15h7
		c0.5,0,0.9-0.3,0.9-0.9v-1.8h1.8c0.5,0,0.9-0.3,0.9-0.9V8.9C15,7,13.4,5.4,11.5,5.4z M10.6,13.3H5.4V9.8h5.3V13.3z"/>
</g>
</svg>
