<?xml version="1.0" encoding="utf-8"?>
<!-- Generator: Adobe Illustrator 21.1.0, SVG Export Plug-In . SVG Version: 6.00 Build 0)  -->
<svg version="1.1" id="m-point" xmlns="http://www.w3.org/2000/svg" xmlns:xlink="http://www.w3.org/1999/xlink" x="0px" y="0px"
	 width="16px" height="16px" viewBox="0 0 16 16" style="enable-background:new 0 0 16 16;" xml:space="preserve">
<style type="text/css">
	.st0{fill:#5C7080;}
</style>
<g>
	<path class="st0" d="M14.7,6L10,1.3c-0.4-0.3-0.9-0.3-1.2,0c-0.4,0.3-0.4,0.9,0,1.2L9.3,3l-6,3.2L2.5,5.4C2.1,5,1.6,5,1.3,5.4
		s-0.4,0.9,0,1.2l1.3,1.3l0,0L4.7,10l-3.2,3.2l1.2,1.2L6,11.2l3.5,3.5c0.4,0.4,1.1,0.2,1.2,0c0.4-0.3,0.4-0.9,0-1.2l-0.9-0.9
		l3.2-5.9l0.5,0.5c0.5,0.5,1.1,0.2,1.2,0C15.1,7,15.1,6.3,14.7,6z M8.4,11.3L4.7,7.6l5.9-3.2l1.1,1.1L8.4,11.3z"/>
</g>
</svg>
