<?xml version="1.0" encoding="utf-8"?>
<!-- Generator: Adobe Illustrator 21.1.0, SVG Export Plug-In . SVG Version: 6.00 Build 0)  -->
<svg version="1.1" id="m-search" xmlns="http://www.w3.org/2000/svg" xmlns:xlink="http://www.w3.org/1999/xlink" x="0px" y="0px"
	 width="16px" height="16px" viewBox="0 0 16 16" style="enable-background:new 0 0 16 16;" xml:space="preserve">
<style type="text/css">
	.st0{fill:#5C7080;}
</style>
<g>
	<path class="st0" d="M7.1,13.3C3.7,13.3,1,10.5,1,7.1S3.7,1,7.1,1s6.1,2.7,6.1,6.1S10.5,13.3,7.1,13.3z M7.1,2.8
		c-2.4,0-4.4,2-4.4,4.4s2,4.4,4.4,4.4s4.4-2,4.4-4.4S9.5,2.8,7.1,2.8z"/>
	<path class="st0" d="M14.7,13.5l-2.1-2.1c-0.4,0.5-0.8,0.9-1.2,1.2l2.1,2.1c0.2,0.2,0.4,0.3,0.6,0.3s0.4-0.1,0.6-0.3
		C15.1,14.4,15.1,13.8,14.7,13.5z"/>
</g>
</svg>
