<?xml version="1.0" encoding="utf-8"?>
<!-- Generator: Adobe Illustrator 21.1.0, SVG Export Plug-In . SVG Version: 6.00 Build 0)  -->
<svg version="1.1" id="m-transparency" xmlns="http://www.w3.org/2000/svg" xmlns:xlink="http://www.w3.org/1999/xlink" x="0px"
	 y="0px" width="16px" height="16px" viewBox="0 0 16 16" style="enable-background:new 0 0 16 16;" xml:space="preserve">
<style type="text/css">
	.st0{fill:#5C7080;}
</style>
<g>
	<path class="st0" d="M4.1,4.5H1.4C1.2,4.5,1,4.3,1,4.1V1.4C1,1.2,1.2,1,1.4,1h2.6c0.2,0,0.4,0.2,0.4,0.4v2.6
		C4.5,4.3,4.3,4.5,4.1,4.5z"/>
	<path class="st0" d="M9.3,4.5H6.7c-0.2,0-0.4-0.2-0.4-0.4V1.4C6.3,1.2,6.4,1,6.7,1h2.6c0.2,0,0.4,0.2,0.4,0.4v2.6
		C9.8,4.3,9.6,4.5,9.3,4.5z"/>
	<path class="st0" d="M9.3,9.8H6.7c-0.2,0-0.4-0.2-0.4-0.4V6.7c0-0.2,0.2-0.4,0.4-0.4h2.6c0.2,0,0.4,0.2,0.4,0.4v2.6
		C9.8,9.6,9.6,9.8,9.3,9.8z"/>
	<path class="st0" d="M14.6,4.5h-2.6c-0.2,0-0.4-0.2-0.4-0.4V1.4c0-0.2,0.2-0.4,0.4-0.4h2.6C14.8,1,15,1.2,15,1.4v2.6
		C15,4.3,14.8,4.5,14.6,4.5z"/>
	<path class="st0" d="M4.1,9.8H1.4C1.2,9.8,1,9.6,1,9.3V6.7c0-0.2,0.2-0.4,0.4-0.4h2.6c0.2,0,0.4,0.2,0.4,0.4v2.6
		C4.5,9.6,4.3,9.8,4.1,9.8z"/>
	<path class="st0" d="M4.1,15H1.4C1.2,15,1,14.8,1,14.6v-2.6c0-0.2,0.2-0.4,0.4-0.4h2.6c0.2,0,0.4,0.2,0.4,0.4v2.6
		C4.5,14.8,4.3,15,4.1,15z"/>
	<path class="st0" d="M13.9,8.9h-1.3c-0.1,0-0.2-0.1-0.2-0.2V7.3c0-0.1,0.1-0.2,0.2-0.2h1.3c0.1,0,0.2,0.1,0.2,0.2v1.3
		C14.1,8.8,14,8.9,13.9,8.9z"/>
	<path class="st0" d="M8.7,14.1H7.3c-0.1,0-0.2-0.1-0.2-0.2v-1.3c0-0.1,0.1-0.2,0.2-0.2h1.3c0.1,0,0.2,0.1,0.2,0.2v1.3
		C8.9,14,8.8,14.1,8.7,14.1z"/>
	<path class="st0" d="M13.9,14.1h-1.3c-0.1,0-0.2-0.1-0.2-0.2v-1.3c0-0.1,0.1-0.2,0.2-0.2h1.3c0.1,0,0.2,0.1,0.2,0.2v1.3
		C14.1,14,14,14.1,13.9,14.1z"/>
</g>
</svg>
