<svg viewBox="0 0 24 24"><rect x="7.6" y="11.42" width="8.81" height="1.15"/><rect x="7.16" y="9.22" width="5.75" height="1.15" transform="translate(-3.99 9.97) rotate(-45)"/><rect x="11.09" y="13.62" width="5.75" height="1.15" transform="translate(-5.95 14.03) rotate(-45)"/><path d="M9.89,17.54a0.73,0.73,0,1,1-.73.73,0.73,0.73,0,0,1,.73-0.73m0-1a1.73,1.73,0,1,0,1.73,1.73,1.73,1.73,0,0,0-1.73-1.73h0Z"/><path d="M14.13,5a0.73,0.73,0,1,1-.73.73A0.73,0.73,0,0,1,14.13,5m0-1a1.73,1.73,0,1,0,1.73,1.73A1.73,1.73,0,0,0,14.13,4h0Z"/></svg>