<?xml version="1.0" encoding="utf-8"?>
<!-- Generator: Adobe Illustrator 21.1.0, SVG Export Plug-In . SVG Version: 6.00 Build 0)  -->
<svg version="1.1" id="m-createVectorLayer" xmlns="http://www.w3.org/2000/svg" xmlns:xlink="http://www.w3.org/1999/xlink" x="0px"
	 y="0px" width="16px" height="16px" viewBox="0 0 16 16" style="enable-background:new 0 0 16 16;" xml:space="preserve">
<style type="text/css">
	.st0{fill:#5C7080;}
</style>
<g>
	<polygon class="st0" points="11,1 11,2 5,2 5,1 1,1 1,5 2,5 2,11 4,11 4,5 5,5 5,4 11,4 11,5 12,5 12,11 14,11 14,5 15,5 15,1 	"/>
	<polygon class="st0" points="11,12 5,12 5,11 1,11 1,15 5,15 5,14 11,14 11,15 15,15 15,11 11,11 	"/>
</g>
<g>
	<path class="st0" d="M8,9.2l1.1-3.9h1.4l-1.8,5.4H7.3L5.5,5.3h1.4L8,9.2z"/>
</g>
</svg>
