<?xml version="1.0" encoding="utf-8"?>
<!-- Generator: Adobe Illustrator 21.1.0, SVG Export Plug-In . SVG Version: 6.00 Build 0)  -->
<svg version="1.1" id="m-hide" xmlns="http://www.w3.org/2000/svg" xmlns:xlink="http://www.w3.org/1999/xlink" x="0px"
	 y="0px" width="16px" height="16px" viewBox="0 0 16 16" style="enable-background:new 0 0 16 16;" xml:space="preserve">
<style type="text/css">
	.st0{fill:#5C7080;}
</style>
<g>
	<path class="st0" d="M2.8,6.3H1V1.9C1,1.4,1.4,1,1.9,1h4.4v1.8H2.8V6.3z"/>
	<path class="st0" d="M15,6.3h-1.8V2.8H9.8V1h4.4C14.7,1,15,1.4,15,1.9V6.3z"/>
	<path class="st0" d="M14.1,15H9.8v-1.8h3.5V9.8H15v4.4C15,14.7,14.7,15,14.1,15z"/>
	<path class="st0" d="M6.3,15H1.9C1.4,15,1,14.7,1,14.1V9.8h1.8v3.5h3.5V15z"/>
</g>
</svg>
