<?xml version="1.0" encoding="utf-8"?>
<!-- Generator: Adobe Illustrator 21.1.0, SVG Export Plug-In . SVG Version: 6.00 Build 0)  -->
<svg version="1.1" id="m-hide" xmlns="http://www.w3.org/2000/svg" xmlns:xlink="http://www.w3.org/1999/xlink" x="0px" y="0px"
	 width="16px" height="16px" viewBox="0 0 16 16" style="enable-background:new 0 0 16 16;" xml:space="preserve">
<style type="text/css">
	.st0{fill:#5C7080;}
</style>
<g>
	<path class="st0" d="M4.5,1h1.8v4.4c0,0.5-0.4,0.9-0.9,0.9H1V4.5h3.5V1z"/>
	<path class="st0" d="M9.8,1h1.8v3.5H15v1.8h-4.4c-0.5,0-0.8-0.4-0.8-0.9V1z"/>
	<path class="st0" d="M10.7,9.8H15v1.8h-3.5V15H9.8v-4.4C9.8,10.1,10.1,9.8,10.7,9.8z"/>
	<path class="st0" d="M1,9.8h4.4c0.5,0,0.9,0.3,0.9,0.9V15H4.5v-3.5H1V9.8z"/>
</g>
</svg>
