<?xml version="1.0" encoding="utf-8"?>
<!-- Generator: Adobe Illustrator 21.1.0, SVG Export Plug-In . SVG Version: 6.00 Build 0)  -->
<svg version="1.1" id="m-permalink" xmlns="http://www.w3.org/2000/svg" xmlns:xlink="http://www.w3.org/1999/xlink" x="0px" y="0px"
	 width="16px" height="16px" viewBox="0 0 16 16" style="enable-background:new 0 0 16 16;" xml:space="preserve">
<style type="text/css">
	.st0{fill:#5C7080;}
</style>
<g>
	<path class="st0" d="M10.6,1C9.5,1,8.3,1.4,7.6,2.3l-1,1c-0.4,0.4-0.4,0.9,0,1.2c0.3,0.3,0.9,0.3,1.2,0l1.1-1c1-1,2.7-1,3.7,0
		C13,4,13.3,4.7,13.3,5.4S13,6.8,12.5,7.2l-1,1c-0.3,0.4-0.3,0.9,0,1.2c0.2,0.2,0.4,0.3,0.6,0.3c0.2,0,0.4-0.1,0.6-0.3l1.1-1.1
		C14.6,7.7,15,6.5,15,5.4s-0.4-2.3-1.3-3.1C12.9,1.4,11.8,1,10.6,1z"/>
	<path class="st0" d="M8.3,11.5l-1,1.1c-1,1-2.7,1-3.7,0C3,12,2.8,11.3,2.8,10.6S3,9.2,3.5,8.8l1-1c0.3-0.3,0.3-0.9,0-1.2
		c-0.3-0.4-0.9-0.4-1.2,0l-1,1.1C1.4,8.3,1,9.5,1,10.6s0.4,2.3,1.3,3.1C3.1,14.6,4.2,15,5.4,15s2.3-0.4,3.1-1.3l1.1-1.1
		c0.3-0.3,0.3-0.9,0-1.2C9.1,11.1,8.6,11.2,8.3,11.5z"/>
	<path class="st0" d="M9.2,5.5L5.5,9.2c-0.3,0.3-0.3,0.9,0,1.2c0.2,0.2,0.4,0.3,0.6,0.3c0.2,0,0.4-0.1,0.6-0.3l3.7-3.7
		c0.4-0.4,0.4-0.9,0-1.2C10.1,5.2,9.6,5.2,9.2,5.5z"/>
</g>
</svg>
