<?xml version="1.0" encoding="utf-8"?>
<!-- Generator: Adobe Illustrator 21.1.0, SVG Export Plug-In . SVG Version: 6.00 Build 0)  -->
<svg version="1.1" id="m-saveMap" xmlns="http://www.w3.org/2000/svg" xmlns:xlink="http://www.w3.org/1999/xlink" x="0px" y="0px"
	 width="16px" height="16px" viewBox="0 0 16 16" style="enable-background:new 0 0 16 16;" xml:space="preserve">
<style type="text/css">
	.st0{fill:#5C7080;}
</style>
<g>
	<path class="st0" d="M11.2,1.3C11.1,1.1,10.9,1,10.6,1H9.8v2.6c0,0.5-0.3,0.9-0.9,0.9H4.5C4,4.5,3.6,4.2,3.6,3.6V1H1.9
		C1.4,1,1,1.4,1,1.9v12.3C1,14.7,1.4,15,1.9,15h12.3c0.5,0,0.9-0.3,0.9-0.9V5.4c0-0.3-0.1-0.4-0.3-0.6L11.2,1.3z M12.4,13.3H3.6
		v-2.6c0-0.5,0.4-0.9,0.9-0.9h7c0.5,0,0.9,0.3,0.9,0.9V13.3z"/>
	<rect x="7.1" y="1" class="st0" width="1.8" height="2.6"/>
</g>
</svg>
