<svg id="Слой_1" data-name="Слой 1" xmlns="http://www.w3.org/2000/svg" width="24" height="24" viewBox="0 0 24 24"><defs><style>.cls-1{fill:#333;}</style></defs><title>buffer-zone</title><path class="cls-1" d="M7.78,16.11a0.63,0.63,0,1,1-.9,0,0.63,0.63,0,0,1,.9,0h0M8.4,15.5a1.5,1.5,0,1,0,0,2.12,1.5,1.5,0,0,0,0-2.12h0Z"/><path class="cls-1" d="M7.78,7a0.63,0.63,0,1,1-.9,0,0.63,0.63,0,0,1,.9,0h0M8.4,6.37a1.5,1.5,0,1,0,0,2.12,1.5,1.5,0,0,0,0-2.12h0Z"/><path class="cls-1" d="M8.71,20H5.88A1.88,1.88,0,0,1,4,18.12V5.88A1.88,1.88,0,0,1,5.88,4H18.12A1.88,1.88,0,0,1,20,5.88V8.35a1.88,1.88,0,0,1-1.88,1.88H11.53a0.94,0.94,0,0,0-.94.94v6.94A1.88,1.88,0,0,1,8.71,20ZM5.88,4.94a0.94,0.94,0,0,0-.94.94V18.12a0.94,0.94,0,0,0,.94.94H8.71a0.94,0.94,0,0,0,.94-0.94V11.18a1.88,1.88,0,0,1,1.88-1.88h6.59a0.94,0.94,0,0,0,.94-0.94V5.88a0.94,0.94,0,0,0-.94-0.94H5.88Z"/><rect class="cls-1" x="6.84" y="9.46" width="1" height="5" rx="0.5" ry="0.5"/><path class="cls-1" d="M17,7.64a0.63,0.63,0,1,1,0-.9,0.63,0.63,0,0,1,0,.9h0m0.61,0.61a1.5,1.5,0,1,0-2.12,0,1.5,1.5,0,0,0,2.12,0h0Z"/><rect class="cls-1" x="11.53" y="4.69" width="1" height="5" rx="0.5" ry="0.5" transform="translate(19.22 -4.83) rotate(90)"/></svg>