<svg id="bulb" xmlns="http://www.w3.org/2000/svg" xmlns:xlink="http://www.w3.org/1999/xlink" width="24" height="24" viewBox="0 0 24 24"><defs><style>.cls-1{fill:none;}.cls-2{clip-path:url(#clip-path);}</style><clipPath id="clip-path"><rect class="cls-1" x="4.5" y="4.02" width="15" height="16"/></clipPath></defs><title>bulb</title><g class="cls-2"><path d="M19,17.65L13.89,9.46V5.34h0.65A0.62,0.62,0,0,0,15,5.15a0.65,0.65,0,0,0,0-.93A0.62,0.62,0,0,0,14.54,4H9.32a0.62,0.62,0,0,0-.46.2,0.65,0.65,0,0,0,0,.93,0.62,0.62,0,0,0,.46.2H10V9.46L4.85,17.65a1.53,1.53,0,0,0-.22,1.57,1.47,1.47,0,0,0,1.43.66H17.8a1.47,1.47,0,0,0,1.43-.66A1.53,1.53,0,0,0,19,17.65h0ZM8.31,14.6l2.77-4.43,0.2-.32V5.34h1.3v4.5l0.2,0.32,2.77,4.43H8.31Zm0,0"/></g></svg>