<svg id="center" xmlns="http://www.w3.org/2000/svg" width="19" height="19" viewBox="0 0 19 19"><defs><style>.cls-1{fill:#8e9396;}</style></defs><title>center</title><path class="cls-1" d="M9.5,6.61A2.89,2.89,0,1,0,12.39,9.5,2.89,2.89,0,0,0,9.5,6.61ZM4.44,11.67H3v2.89A1.45,1.45,0,0,0,4.44,16H7.33V14.56H4.44V11.67Zm0-7.22H7.33V3H4.44A1.45,1.45,0,0,0,3,4.44V7.33H4.44V4.44ZM14.56,3H11.67V4.44h2.89V7.33H16V4.44A1.45,1.45,0,0,0,14.56,3Zm0,11.56H11.67V16h2.89A1.45,1.45,0,0,0,16,14.56V11.67H14.56v2.89Z"/></svg>