<svg id="Слой_1" data-name="Слой 1" xmlns="http://www.w3.org/2000/svg" width="24" height="24" viewBox="0 0 24 24"><defs><style>.cls-1{fill:#333;}</style></defs><title>vector</title><path class="cls-1" d="M20,8.36V4H15.64V5.45H8.36V4H4V8.36H5.45v7.27H4V20H8.36V18.55h7.27V20H20V15.64H18.55V8.36H20ZM5.45,5.45H6.91V6.91H5.45V5.45ZM6.91,18.55H5.45V17.09H6.91v1.45Zm8.73-1.45H8.36V15.64H6.91V8.36H8.36V6.91h7.27V8.36h1.45v7.27H15.64v1.45Zm2.91,1.45H17.09V17.09h1.45v1.45ZM17.09,6.91V5.45h1.45V6.91H17.09Z"/><path class="cls-1" d="M11.85,14L13.25,9.3h1.42l-2.16,6.2H11.18L9,9.3h1.42Z"/></svg>