<svg id="Слой_1" data-name="Слой 1" xmlns="http://www.w3.org/2000/svg" width="24" height="24" viewBox="0 0 24 24"><defs><style>.cls-1{fill:#333;}</style></defs><title>raster-2</title><path class="cls-1" d="M18.7,5.3V18.7H5.3V5.3H18.7M20,4H4V20H20V4h0Z"/><path class="cls-1" d="M11.85,13.06h-1.3V16H8.91V8h2.95A3.33,3.33,0,0,1,14,8.66a2.17,2.17,0,0,1,.76,1.77,2.44,2.44,0,0,1-.35,1.35,2.4,2.4,0,0,1-1.07.86l1.72,3.24V16H13.34Zm-1.3-1.32h1.32a1.35,1.35,0,0,0,1-.31,1.12,1.12,0,0,0,.34-0.86,1.2,1.2,0,0,0-.32-0.88,1.33,1.33,0,0,0-1-.32H10.54v2.38Z"/></svg>