<svg id="Слой_1" data-name="Слой 1" xmlns="http://www.w3.org/2000/svg" width="24" height="24" viewBox="0 0 24 24"><defs><style>.cls-1{fill:#333;}</style></defs><title>grid-2</title><path class="cls-1" d="M18.4,4H5.6A1.6,1.6,0,0,0,4,5.6V18.4A1.6,1.6,0,0,0,5.6,20H18.4A1.6,1.6,0,0,0,20,18.4V5.6A1.6,1.6,0,0,0,18.4,4ZM8.8,18.4H5.6V15.2H8.8v3.2Zm0-4.8H5.6V10.4H8.8v3.2Zm0-4.8H5.6V5.6H8.8V8.8Zm4.8,9.6H10.4V15.2h3.2v3.2Zm0-4.8H10.4V10.4h3.2v3.2Zm0-4.8H10.4V5.6h3.2V8.8Zm4.8,9.6H15.2V15.2h3.2v3.2h0Zm0-4.8H15.2V10.4h3.2v3.2h0Zm0-4.8H15.2V5.6h3.2V8.8h0Z"/></svg>