<svg id="Слой_1" data-name="Слой 1" xmlns="http://www.w3.org/2000/svg" width="24" height="24" viewBox="0 0 24 24"><defs><style>.cls-1{fill:#333;}</style></defs><title>marker</title><path class="cls-1" d="M13.67,14.07l-3.8-3.8,5.78-4.84a0.52,0.52,0,0,1,.73,0L18.5,7.56a0.52,0.52,0,0,1,0,.73Z"/><path class="cls-1" d="M13.24,17.1L6.84,10.71A0.39,0.39,0,0,1,7.13,10L10,10.19l3.8,3.8,0.15,2.83A0.39,0.39,0,0,1,13.24,17.1Z"/><polygon class="cls-1" points="4.01 19.94 4.01 19.94 9.32 13 10.95 14.63 4.01 19.94"/><path class="cls-1" d="M19,8.89L15.06,5a0.62,0.62,0,0,1,0-.88h0a0.62,0.62,0,0,1,.88,0L19.82,8a0.62,0.62,0,0,1,0,.88h0A0.62,0.62,0,0,1,19,8.89Z"/></svg>