<svg id="Слой_1" data-name="Слой 1" xmlns="http://www.w3.org/2000/svg" width="24" height="24" viewBox="0 0 24 24"><defs><style>.cls-1{fill:#333;}</style></defs><title>rectangle</title><rect class="cls-1" x="8" y="8" width="8" height="1"/><rect class="cls-1" x="8" y="15" width="8" height="1"/><rect class="cls-1" x="18" y="11" width="1" height="2"/><rect class="cls-1" x="5" y="11" width="1" height="2"/><path class="cls-1" d="M5.5,8a0.5,0.5,0,1,1-.5.5A0.5,0.5,0,0,1,5.5,8m0-1A1.5,1.5,0,1,0,7,8.5,1.5,1.5,0,0,0,5.5,7h0Z"/><path class="cls-1" d="M5.5,15a0.5,0.5,0,1,1-.5.5A0.5,0.5,0,0,1,5.5,15m0-1A1.5,1.5,0,1,0,7,15.5,1.5,1.5,0,0,0,5.5,14h0Z"/><path class="cls-1" d="M18.5,8a0.5,0.5,0,1,1-.5.5A0.5,0.5,0,0,1,18.5,8m0-1A1.5,1.5,0,1,0,20,8.5,1.5,1.5,0,0,0,18.5,7h0Z"/><path class="cls-1" d="M18.5,15a0.5,0.5,0,1,1-.5.5,0.5,0.5,0,0,1,.5-0.5m0-1A1.5,1.5,0,1,0,20,15.5,1.5,1.5,0,0,0,18.5,14h0Z"/></svg>