<svg id="tl-help" xmlns="http://www.w3.org/2000/svg" width="14" height="14" viewBox="0 0 14 14"><defs><style>.cls-1{fill:#5c7080;}</style></defs><title>help</title><path class="cls-1" d="M7,1a6,6,0,1,0,6,6A6,6,0,0,0,7,1Zm0,9.75a0.75,0.75,0,0,1,0-1.5A0.75,0.75,0,0,1,7,10.75ZM8.13,7.3c-0.37.23-.37,0.3-0.37,0.45V8.5H6.25V7.75A2,2,0,0,1,7.3,6c0.38-.22.45-0.3,0.45-0.52A0.71,0.71,0,0,0,7,4.75a0.79,0.79,0,0,0-.68.38L5.95,5.8,4.67,5.05,5,4.38A2.24,2.24,0,0,1,7,3.25,2.21,2.21,0,0,1,9.25,5.5,2,2,0,0,1,8.13,7.3Z"/></svg>