<?xml version="1.0" encoding="utf-8"?>
<!-- Generator: Adobe Illustrator 21.1.0, SVG Export Plug-In . SVG Version: 6.00 Build 0)  -->
<svg version="1.1" id="m-boxzoom" xmlns="http://www.w3.org/2000/svg" xmlns:xlink="http://www.w3.org/1999/xlink" x="0px"
	 y="0px" width="16px" height="16px" viewBox="0 0 16 16" style="enable-background:new 0 0 16 16;" xml:space="preserve">
<style type="text/css">
	.st0{fill:#5C7080;}
</style>
<g>
	<path class="st0" d="M1.2,10.2l0.6,0.6C1.9,10.9,2.1,11,2.3,11s0.3-0.1,0.4-0.2l1.7-1.7C5,9.5,5.8,9.7,6.6,9.7c2.4,0,4.4-2,4.4-4.4
		S9,1,6.6,1S2.3,3,2.3,5.4c0,0.8,0.2,1.6,0.6,2.2L1.2,9.3C0.9,9.6,0.9,9.9,1.2,10.2z M3.5,5.4c0-1.7,1.4-3.1,3.1-3.1
		s3.1,1.4,3.1,3.1S8.4,8.5,6.6,8.5S3.5,7.1,3.5,5.4z"/>
</g>
<g>
	<g>
		<path class="st0" d="M13.3,1C14.3,1,15,2,15,2.5v3.8h-1.8V2.8V1z"/>
		<path class="st0" d="M14.1,15H9.8v-1.8h3.5V9.8H15v4.4C15,14.7,14.7,15,14.1,15z"/>
	</g>
	<path class="st0" d="M2.8,13.3h3.5V15H2.5C2,15,1,14.3,1,13.3H2.8z"/>
</g>
</svg>
