<svg id="Слой_1" data-name="Слой 1" xmlns="http://www.w3.org/2000/svg" width="24" height="24" viewBox="0 0 24 24"><defs><style>.cls-1{fill:#333;}</style></defs><title>boxzoom-02</title><path class="cls-1" d="M16.1,15.07H15.56l-0.19-.19a4.47,4.47,0,1,0-.48.48l0.19,0.19v0.54l3.41,3.41,1-1Zm-4.09,0A3.07,3.07,0,1,1,15.08,12h0A3.06,3.06,0,0,1,12,15.07h0Z"/><rect class="cls-1" x="3.99" y="14.37" width="2" height="5.63"/><polygon class="cls-1" points="5.99 10.62 3.99 10.62 3.99 3.99 10.62 3.99 10.62 5.99 5.99 5.99 5.99 10.62"/><rect class="cls-1" x="14.37" y="3.99" width="5.63" height="2"/></svg>