<svg id="Слой_1" data-name="Слой 1" xmlns="http://www.w3.org/2000/svg" width="24" height="24" viewBox="0 0 24 24"><defs><style>.cls-1{fill:#333;}</style></defs><title>boxzoom-03</title><path class="cls-1" d="M16.6,15.57H16.05l-0.19-.19a4.47,4.47,0,1,0-.48.48l0.19,0.19v0.54L19,20l1-1Zm-4.09,0a3.07,3.07,0,1,1,3.07-3.07h0a3.06,3.06,0,0,1-3.05,3.07h0Z"/><rect class="cls-1" x="3.99" y="14.37" width="2" height="5.63"/><path class="cls-1" d="M6,10.62H4v-3A3.6,3.6,0,0,1,7.59,4h3V6h-3A1.6,1.6,0,0,0,6,7.59v3Z"/><rect class="cls-1" x="14.37" y="3.99" width="5.63" height="2"/></svg>