<svg id="Слой_1" data-name="Слой 1" xmlns="http://www.w3.org/2000/svg" width="24" height="24" viewBox="0 0 24 24"><defs><style>.cls-1{fill:#333;}</style></defs><title>grid</title><path class="cls-1" d="M15.77,6.64h-3V4.8a0.8,0.8,0,0,0-1.6,0V6.64h-3V4.8a0.8,0.8,0,1,0-1.6,0V6.64H4.8a0.8,0.8,0,1,0,0,1.6H6.64v3H4.8a0.8,0.8,0,0,0,0,1.6H6.64v3H4.8a0.8,0.8,0,1,0,0,1.6H6.64V19.2a0.8,0.8,0,1,0,1.6,0V17.36h3V19.2a0.8,0.8,0,0,0,1.6,0V17.36h3V19.2a0.8,0.8,0,1,0,1.6,0V17.36H19.2a0.8,0.8,0,1,0,0-1.6H17.36v-3H19.2a0.8,0.8,0,0,0,0-1.6H17.36v-3H19.2a0.8,0.8,0,1,0,0-1.6H17.36V4.8a0.8,0.8,0,0,0-1.6,0V6.64m0,1.6v3h-3v-3h3Zm-7.53,0h3v3h-3v-3Zm0,7.53v-3h3v3h-3Zm7.53,0h-3v-3h3v3Z"/></svg>