<svg id="Слой_1" data-name="Слой 1" xmlns="http://www.w3.org/2000/svg" width="24" height="24" viewBox="0 0 24 24"><title>magic-wand</title><g id="auto-fix"><polygon points="8.95 6.74 10.86 7.81 9.79 5.91 10.86 4 8.95 5.07 7.05 4 8.11 5.91 7.05 7.81 8.95 6.74"/><polygon points="18.09 14.21 16.19 13.14 17.26 15.05 16.19 16.95 18.09 15.89 20 16.95 18.93 15.05 20 13.14 18.09 14.21"/><polygon points="20 4 18.09 5.07 16.19 4 17.26 5.91 16.19 7.81 18.09 6.74 20 7.81 18.93 5.91 20 4"/><path d="M14.21,8a0.74,0.74,0,0,0-1.07,0L4.23,17a0.74,0.74,0,0,0,0,1.07L6,19.77a0.74,0.74,0,0,0,1.07,0L16,10.86a0.74,0.74,0,0,0,0-1.07Zm-0.84,4.19-1.6-1.6L13.6,8.8l1.6,1.6Z"/></g></svg>