<svg id="Слой_1" data-name="Слой 1" xmlns="http://www.w3.org/2000/svg" width="24" height="24" viewBox="0 0 24 24"><defs><style>.cls-1{fill:#333;}</style></defs><title>polygon</title><rect class="cls-1" x="6.04" y="8.9" width="2.05" height="0.97" transform="translate(-4.65 10.2) rotate(-57.04)"/><rect class="cls-1" x="10.84" y="6.25" width="2.05" height="0.97"/><rect class="cls-1" x="10.84" y="16.89" width="2.05" height="0.97"/><rect class="cls-1" x="6.58" y="13.65" width="0.97" height="2.05" transform="translate(-6.85 6.2) rotate(-32.96)"/><path class="cls-1" d="M8.68,6.28a0.45,0.45,0,1,1-.45.45,0.45,0.45,0,0,1,.45-0.45m0-1a1.45,1.45,0,1,0,1.45,1.45A1.45,1.45,0,0,0,8.68,5.28h0Z"/><path class="cls-1" d="M8.68,16.87a0.45,0.45,0,1,1-.45.45,0.45,0.45,0,0,1,.45-0.45m0-1a1.45,1.45,0,1,0,1.45,1.45,1.45,1.45,0,0,0-1.45-1.45h0Z"/><path class="cls-1" d="M5.45,11.58A0.45,0.45,0,1,1,5,12a0.45,0.45,0,0,1,.45-0.45m0-1A1.45,1.45,0,1,0,6.9,12a1.45,1.45,0,0,0-1.45-1.45h0Z"/><rect class="cls-1" x="15.91" y="14.14" width="2.05" height="0.97" transform="translate(-4.55 20.88) rotate(-57.04)"/><rect class="cls-1" x="16.45" y="8.31" width="0.97" height="2.05" transform="translate(-2.35 10.72) rotate(-32.96)"/><path class="cls-1" d="M15.32,16.82a0.45,0.45,0,1,1-.45.45,0.45,0.45,0,0,1,.45-0.45m0-1a1.45,1.45,0,1,0,1.45,1.45,1.45,1.45,0,0,0-1.45-1.45h0Z"/><path class="cls-1" d="M15.32,6.24a0.45,0.45,0,1,1-.45.45,0.45,0.45,0,0,1,.45-0.45m0-1a1.45,1.45,0,1,0,1.45,1.45,1.45,1.45,0,0,0-1.45-1.45h0Z"/><path class="cls-1" d="M18.55,11.53a0.45,0.45,0,1,1-.45.45,0.45,0.45,0,0,1,.45-0.45m0-1A1.45,1.45,0,1,0,20,12a1.45,1.45,0,0,0-1.45-1.45h0Z"/></svg>