<svg id="Слой_1" data-name="Слой 1" xmlns="http://www.w3.org/2000/svg" width="24" height="24" viewBox="0 0 24 24"><defs><style>.cls-1{fill:#333;}</style></defs><title>line</title><rect class="cls-1" x="7.6" y="11.42" width="8.81" height="1.15"/><rect class="cls-1" x="7.16" y="9.22" width="5.75" height="1.15" transform="translate(-3.99 9.97) rotate(-45)"/><rect class="cls-1" x="11.09" y="13.62" width="5.75" height="1.15" transform="translate(-5.95 14.03) rotate(-45)"/><path class="cls-1" d="M9.89,17.54a0.73,0.73,0,1,1-.73.73,0.73,0.73,0,0,1,.73-0.73m0-1a1.73,1.73,0,1,0,1.73,1.73,1.73,1.73,0,0,0-1.73-1.73h0Z"/><path class="cls-1" d="M14.13,5a0.73,0.73,0,1,1-.73.73A0.73,0.73,0,0,1,14.13,5m0-1a1.73,1.73,0,1,0,1.73,1.73A1.73,1.73,0,0,0,14.13,4h0Z"/></svg>