<svg id="tl-single-interval" xmlns="http://www.w3.org/2000/svg" width="14" height="14" viewBox="0 0 14 14"><defs><style>.cls-1{fill:#5c7080;}</style></defs><title>single-interval-passive</title><path class="cls-1" d="M9.25,1A3.52,3.52,0,0,0,6.63,2.13l-0.9.82A0.74,0.74,0,0,0,6.78,4l0.9-.9a2.31,2.31,0,0,1,3.15,0,2.33,2.33,0,0,1,.67,1.65,2,2,0,0,1-.67,1.57L10,7.23a0.73,0.73,0,0,0,0,1,0.72,0.72,0,0,0,1,0l0.9-.9A3.75,3.75,0,0,0,13,4.75a3.52,3.52,0,0,0-1.12-2.62A3.52,3.52,0,0,0,9.25,1Z"/><path class="cls-1" d="M7.23,10l-0.9.9a2.31,2.31,0,0,1-3.15,0A2.33,2.33,0,0,1,2.5,9.25a2,2,0,0,1,.68-1.58L4,6.77A0.74,0.74,0,1,0,2.95,5.72l-0.82.9a3.62,3.62,0,0,0,0,5.25A3.52,3.52,0,0,0,4.75,13a3.52,3.52,0,0,0,2.63-1.12l0.9-.9A0.72,0.72,0,1,0,7.23,10Z"/><path class="cls-1" d="M8,4.9L4.9,8a0.72,0.72,0,0,0,0,1,0.81,0.81,0,0,0,.52.23A0.81,0.81,0,0,0,5.95,9.1L9.1,5.95A0.74,0.74,0,1,0,8,4.9Z"/></svg>