<svg id="Слой_1" data-name="Слой 1" xmlns="http://www.w3.org/2000/svg" width="24" height="24" viewBox="0 0 24 24"><title>transparency-eye-off</title><polygon points="18.68 20.13 4 5.38 5.32 4.13 20 18.87 18.68 20.13"/><path d="M12.06,8.77A3.42,3.42,0,0,1,15.26,12L18,14.72a13.33,13.33,0,0,0,1.81-2,0.69,0.69,0,0,0,0-.79C17.75,9,15,7.28,11.92,7.28a7.94,7.94,0,0,0-1.25.11Z"/><path d="M12,14.17a1.83,1.83,0,0,0,1.58-1.26l-2.38-2.39a1.9,1.9,0,0,0-1.12,1.63A1.85,1.85,0,0,0,12,14.17Z"/><path d="M14.79,14.09a3.35,3.35,0,0,1-2.65,1.71A3.45,3.45,0,0,1,8.57,12a3.56,3.56,0,0,1,1.5-2.7L8.69,8a11.38,11.38,0,0,0-4.64,3.92,0.69,0.69,0,0,0,0,.79c2,2.85,4.82,4.61,7.87,4.61a8.44,8.44,0,0,0,4.61-1.43Z"/></svg>